<?xml version="1.0" encoding="UTF-8"?>
<svg id="Layer_1" data-name="Layer 1" xmlns="http://www.w3.org/2000/svg" viewBox="0 0 498 498">
  <defs>
    <style>
      .cls-1 {
        fill: #fff;
      }

      .cls-2, .cls-3 {
        fill: #ed1c24;
      }

      .cls-4 {
        fill: #939598;
      }

      .cls-5 {
        fill: #0f0e0e;
      }

      .cls-3 {
        stroke: #fff;
        stroke-miterlimit: 10;
        stroke-width: 4px;
      }
    </style>
  </defs>
  <path class="cls-5" d="M249.04,487.5c-.71,0-1.41,0-2.12,0-63.7-.56-123.38-25.89-168.03-71.32C34.24,370.73,9.95,310.62,10.51,246.92c.55-63.33,25.63-122.76,70.63-167.33C126.1,35.03,185.7,10.5,248.96,10.5c.71,0,1.41,0,2.12,0,63.7.56,123.38,25.89,168.03,71.32,44.65,45.44,68.94,105.54,68.38,169.25-.55,63.33-25.63,122.76-70.63,167.33-44.96,44.55-104.56,69.09-167.82,69.09Z"/>
  <path class="cls-1" d="M248.98,9v3c.7,0,1.39,0,2.09,0,31.99.28,62.98,6.82,92.08,19.43,28.12,12.18,53.31,29.49,74.89,51.45s38.44,47.45,50.13,75.77c12.1,29.32,18.1,60.41,17.82,92.41-.28,31.82-6.75,62.65-19.23,91.63-12.06,27.99-29.2,53.11-50.95,74.66-21.74,21.54-47.01,38.45-75.1,50.25-29.06,12.21-59.9,18.4-91.67,18.4-.71,0-1.4,0-2.11,0-31.99-.28-62.98-6.82-92.08-19.43-28.12-12.18-53.31-29.49-74.89-51.45-21.58-21.96-38.44-47.45-50.13-75.77-12.1-29.32-18.1-60.41-17.82-92.41.28-31.82,6.75-62.65,19.23-91.62,12.06-27.99,29.2-53.11,50.95-74.65,21.74-21.54,47.01-38.45,75.1-50.25,29.06-12.21,59.9-18.4,91.67-18.41l.02-3M248.96,9c-131.56.01-238.8,106.08-239.95,237.91-1.16,132.54,105.35,240.93,237.9,242.08.72,0,1.42,0,2.14,0,131.56,0,238.8-106.08,239.95-237.91,1.16-132.54-105.35-240.93-237.9-242.08-.72,0-1.42,0-2.14,0h0Z"/>
  <path class="cls-1" d="M248.96,9c.72,0,1.42,0,2.14,0,132.54,1.16,239.05,109.54,237.9,242.08-1.15,131.82-108.39,237.91-239.95,237.91-.72,0-1.42,0-2.14,0-132.54-1.16-239.05-109.54-237.9-242.08C10.16,115.08,117.4,9.01,248.96,9M248.98,0h-.03c-33.37,0-65.78,6.51-96.32,19.34-29.51,12.4-56.06,30.16-78.89,52.79-22.85,22.64-40.86,49.02-53.52,78.43C7.1,181.01.3,213.4,0,246.83c-.29,33.61,6.01,66.28,18.73,97.09,12.28,29.76,30,56.54,52.67,79.61s49.14,41.25,78.68,54.05c30.59,13.25,63.14,20.12,96.75,20.42.75,0,1.47,0,2.22,0,33.37,0,65.78-6.51,96.32-19.34,29.51-12.4,56.06-30.16,78.89-52.79,22.85-22.64,40.86-49.03,53.52-78.43,13.12-30.45,19.92-62.84,20.21-96.27.29-33.61-6.01-66.28-18.73-97.09-12.28-29.76-30-56.54-52.67-79.61-22.66-23.06-49.14-41.25-78.68-54.05C317.33,7.17,284.78.3,251.17,0c-.74,0-1.45,0-2.19,0h0Z"/>
  <path class="cls-4" d="M248.96,9c.72,0,1.42,0,2.14,0,132.54,1.16,239.05,109.54,237.9,242.08-1.15,131.82-108.39,237.91-239.95,237.91-.72,0-1.42,0-2.14,0-132.54-1.16-239.05-109.54-237.9-242.08C10.16,115.08,117.4,9.01,248.96,9M248.98,3h-.03c-32.97,0-64.99,6.43-95.16,19.11-29.16,12.25-55.38,29.8-77.94,52.15-22.57,22.36-40.36,48.43-52.88,77.49-12.96,30.08-19.68,62.08-19.97,95.11-.29,33.21,5.93,65.48,18.5,95.92,12.13,29.4,29.64,55.86,52.03,78.65,22.39,22.79,48.54,40.75,77.73,53.4,30.22,13.09,62.38,19.88,95.58,20.17.74,0,1.45,0,2.19,0,32.97,0,64.99-6.43,95.16-19.1,29.16-12.25,55.38-29.8,77.94-52.15,22.57-22.37,40.36-48.44,52.88-77.49,12.96-30.08,19.68-62.08,19.97-95.11.29-33.21-5.93-65.48-18.5-95.92-12.13-29.4-29.64-55.86-52.03-78.65-22.39-22.79-48.54-40.75-77.73-53.4-30.22-13.09-62.38-19.88-95.58-20.17-.73,0-1.44,0-2.16,0h0Z"/>
  <path class="cls-1" d="M38.71,198.84l4.28-15.49,7.01,1.9-1.75,6.34,6.64,1.8,1.56-5.65,6.66,1.81-1.56,5.65,14.71,4-2.53,9.14-35.03-9.52Z"/>
  <path class="cls-1" d="M56.18,151.69l35.17,10.46-4.15,8.77-6.12-2.3-1.45,3.07,5.66,3.28-4.2,8.87-30.78-19.75,5.87-12.4ZM75.15,166.12c-3.93-1.31-8.73-3.02-14.42-5.15,5.88,3.82,10.22,6.52,13.02,8.1l1.4-2.95Z"/>
  <path class="cls-1" d="M67.96,131.22l3.98-5.42c2.65-3.61,4.59-5.96,5.81-7.04,1.22-1.08,2.69-1.6,4.42-1.58,1.73.02,3.85.94,6.34,2.76,2.28,1.66,3.6,3.06,3.97,4.2.37,1.14.01,2.61-1.06,4.39,1.49-1.24,2.74-1.9,3.75-1.96,1.01-.06,1.83.03,2.44.28.62.25,2.11,1.24,4.48,2.96l7.73,5.62-5.22,7.11-9.74-7.08c-1.57-1.14-2.63-1.72-3.19-1.75-.56-.02-1.22.49-2,1.55l13.21,9.61-5.62,7.66-29.3-21.32ZM78.6,127.21l6.52,4.74c.63-.86.96-1.55.98-2.07.02-.52-.62-1.24-1.91-2.18l-1.61-1.17c-.93-.68-1.66-.95-2.2-.83-.53.12-1.13.63-1.78,1.51Z"/>
  <path class="cls-1" d="M110.45,84.13l12.75-9.85,4.44,5.72-5.22,4.03,4.21,5.42,4.65-3.59,4.22,5.44-4.65,3.59,9.32,12.01-7.53,5.81-22.2-28.59Z"/>
  <path class="cls-1" d="M146.63,60.01l13.96,25.36,5.07-2.78,3.49,6.35-13.42,7.36-17.45-31.7,8.34-4.58Z"/>
  <path class="cls-1" d="M188.81,42.69l7.79,22.9c.88,2.6,1.42,4.45,1.6,5.56s.05,2.36-.42,3.75c-.47,1.39-1.29,2.61-2.47,3.65-1.18,1.04-2.71,1.88-4.58,2.52-2.07.7-4.01.99-5.82.85-1.81-.14-3.3-.62-4.45-1.44-1.15-.82-2.01-1.81-2.56-2.96-.55-1.16-1.49-3.67-2.8-7.53l-6.9-20.27,9.01-3.07,8.74,25.69c.51,1.49.92,2.42,1.22,2.78.31.36.71.46,1.21.28.57-.19.86-.55.87-1.06,0-.51-.28-1.62-.86-3.33l-8.59-25.24,9.01-3.07Z"/>
  <path class="cls-1" d="M228.72,35.29l4.94,35.86-8.26,1.16-7.15-15.61,2.25,16.3-7.88,1.1-4.94-35.85,7.88-1.1,7.51,15.41-2.23-16.15,7.88-1.1Z"/>
  <path class="cls-1" d="M269.26,48.73l-9.5-.45.17-3.28c.1-2.07.08-3.37-.07-3.9-.15-.53-.57-.81-1.25-.84-.59-.03-1,.18-1.23.61-.23.44-.39,1.58-.49,3.43l-.88,17.36c-.08,1.62-.03,2.7.15,3.22.18.52.59.8,1.22.83.69.03,1.18-.24,1.45-.81.28-.57.46-1.69.54-3.38l.22-4.29-1.92-.09.28-5.5,11.12.52-.98,19.41-5.97-.28-.75-2.63c-.71,1.09-1.56,1.89-2.58,2.4-1.01.51-2.19.74-3.53.67-1.6-.08-3.07-.53-4.42-1.36-1.35-.83-2.36-1.83-3.03-3-.67-1.17-1.06-2.37-1.17-3.63-.12-1.25-.11-3.12.01-5.61l.54-10.75c.17-3.46.49-5.96.95-7.5.46-1.55,1.61-2.93,3.46-4.15,1.85-1.22,4.19-1.76,7.01-1.63,2.78.13,5.06.81,6.84,2.02s2.91,2.62,3.38,4.2c.48,1.58.64,3.86.49,6.82l-.08,1.56Z"/>
  <path class="cls-1" d="M327.28,66.01l-8.94-3.21,2.15-5.92c.63-1.72.92-2.83.89-3.33-.04-.5-.38-.86-1.03-1.09-.74-.26-1.3-.17-1.69.28-.39.45-.89,1.54-1.52,3.26l-5.75,15.83c-.6,1.66-.9,2.77-.88,3.35.01.58.37.99,1.06,1.24.67.24,1.19.14,1.58-.29.39-.43.92-1.58,1.61-3.46l1.56-4.28,8.94,3.21-.48,1.33c-1.28,3.53-2.44,5.94-3.48,7.23-1.04,1.29-2.62,2.19-4.75,2.68-2.12.49-4.45.29-6.97-.62-2.62-.94-4.61-2.18-5.96-3.73-1.36-1.55-2.01-3.25-1.96-5.11.05-1.86.69-4.46,1.9-7.8l3.62-9.96c.89-2.46,1.65-4.27,2.26-5.43.62-1.17,1.55-2.17,2.81-3,1.26-.83,2.75-1.31,4.48-1.43,1.73-.12,3.57.17,5.51.87,2.63.94,4.62,2.23,5.97,3.85,1.35,1.62,2.01,3.28,2,4.98s-.59,4.14-1.75,7.32l-1.18,3.24Z"/>
  <path class="cls-1" d="M368.68,70.43l-18.64,31.14-8.16-4.84,7.83-13.08-2.44-1.45-7.83,13.08-8.17-4.84,18.64-31.14,8.17,4.84-6.67,11.14,2.44,1.45,6.67-11.14,8.16,4.84Z"/>
  <path class="cls-1" d="M397.34,93.34l-20.09,30.71-7.26-6.42,3.96-5.21-2.54-2.25-4.77,4.5-7.35-6.49,27.78-23.92,10.27,9.08ZM378.04,107.45c2.38-3.39,5.4-7.51,9.06-12.35-5.35,4.55-9.19,7.95-11.51,10.19l2.45,2.16Z"/>
  <path class="cls-1" d="M426.66,126.95l-28.78,22.19-5.09-6.56,10.06-13.98-13.08,10.09-4.85-6.26,28.78-22.19,4.85,6.26-9.71,14.19,12.96-9.99,4.85,6.26Z"/>
  <path class="cls-1" d="M434.96,168.77l-4.29-8.45,2.94-1.49c1.86-.94,2.98-1.61,3.37-2.01.38-.4.42-.9.12-1.5-.26-.52-.65-.78-1.14-.76-.5.02-1.57.44-3.23,1.28l-15.57,7.88c-1.46.74-2.37,1.32-2.73,1.74-.37.42-.41.91-.12,1.47.31.61.78.9,1.42.86s1.7-.45,3.21-1.21l3.85-1.95-.87-1.71,4.93-2.49,5.02,9.89-17.41,8.81-2.69-5.31,1.93-1.96c-1.29-.07-2.41-.42-3.36-1.04-.95-.62-1.72-1.53-2.33-2.72-.72-1.42-1.05-2.92-.99-4.51.06-1.59.43-2.96,1.12-4.11.69-1.16,1.55-2.1,2.58-2.82,1.03-.73,2.67-1.65,4.9-2.78l9.64-4.88c3.1-1.57,5.43-2.54,7.01-2.92,1.57-.38,3.34-.07,5.32.93,1.97.99,3.6,2.75,4.87,5.26,1.26,2.48,1.79,4.78,1.6,6.93-.19,2.15-.85,3.82-2,5.02-1.14,1.2-3.05,2.48-5.7,3.82l-1.4.71Z"/>
  <path class="cls-1" d="M453.72,180.5l4.56,15.12-6.97,2.1-1.82-6.05-6.6,1.99,1.71,5.67-6.62,2-1.71-5.67-7.65,2.31,2,6.66-6.96,2.1-4.74-15.73,34.8-10.51Z"/>
  <path class="cls-1" d="M324.16,272.43c-4.03,14.78-12.54,28.27-24.22,38.23-42.56,36.53-108.82,17.76-127.9-34.74-17.47-45.69,7.98-95.45,56.02-105.9,15.44-3.26,32.04-1.53,46.12,5.61.42.21.6.73.38,1.16-.17.34-.54.52-.9.46-35.35-5.74-70.94,12.33-84.65,45.09-29.38,67.92,48.62,126.59,107.6,84.15,11.66-8.53,20.83-20.68,25.92-34.59.16-.44.65-.67,1.09-.51.42.15.65.61.53,1.03h0Z"/>
  <path class="cls-1" d="M406.17,289.64c-.77,2.63-2.08,8.04-2.87,10.52-1.14,3.23-2.36,7.16-3.63,10.31-.57,1.43-3.02,7.14-3.56,8.4-1.19,2.32-2.95,5.81-4.14,8.15-7.67,13.8-17.37,26.85-28.84,37.76-15.8,15.41-34.86,27.69-55.34,35.92-20.57,8.42-42.9,12.8-65.13,12.75-45.87-.1-88.62-19.84-118.7-54.49-26.47-30.26-39.58-71.01-38.24-110.99,2.21-70.87,47.95-137.71,117.44-157.3,77.64-23,164.55,19.86,195.17,94.37,3.72,9,6.59,18.32,8.57,27.8-2.52-9.36-5.9-18.45-10.08-27.13-42.57-89.84-161.48-123.77-240.44-60.04-44.07,35.45-66.09,94.97-58.21,150.69,9.84,72.68,71.44,127.19,144.63,128.87,42.77,1.01,85.64-14.94,117.46-43.54,13.34-11.87,24.84-26.33,33.41-42.01,0,0,.89-1.57.89-1.57.29-.53.53-1.08.8-1.62l3.18-6.49c1.05-2.02,1.91-4.6,2.82-6.67,1.76-3.87,3.44-9.65,4.83-13.68h0Z"/>
  <path class="cls-1" d="M68.95,289.4l3.83,13.93-2.77.76-2.9-10.56-8.48,2.32,2.68,9.75-2.73.75-2.68-9.75-11.55,3.16-.93-3.38,25.53-6.98Z"/>
  <path class="cls-1" d="M76.18,312.61l-24.82,9.17-1.22-3.29,24.82-9.17,1.22,3.29Z"/>
  <path class="cls-1" d="M78.79,320.36c1.05,1.44,2.37,3.63,3.39,5.75,1.61,3.33,2.04,5.83,1.44,7.93-.49,1.7-1.76,3.2-3.64,4.11-3.11,1.5-6.17.51-8.23-1.59l-.11.05c.25,2.14-.91,4.07-3.11,5.84-2.94,2.39-4.96,4.08-5.63,5.03l-1.56-3.22c.52-.74,2.27-2.25,4.93-4.33,2.94-2.31,3.53-4.23,2.27-7.11l-1.42-2.94-10.32,4.99-1.51-3.12,23.5-11.37ZM69.45,328.72l1.54,3.19c1.61,3.33,4.44,4.58,7.16,3.26,3.07-1.49,3.32-4.39,1.73-7.69-.73-1.5-1.34-2.49-1.74-2.96l-8.69,4.21Z"/>
  <path class="cls-1" d="M70.86,352.79c.02,1.84.6,4.12,1.9,6.12,1.93,2.98,4.6,3.71,6.84,2.26,2.04-1.32,2.49-3.32,1.64-7.08-1.06-4.53-.62-8.04,2.48-10.05,3.46-2.24,7.92-1,10.75,3.38,1.47,2.27,2.05,4.32,2.11,5.65l-2.86.71c-.03-.98-.37-2.89-1.69-4.93-1.99-3.08-4.56-3.07-6.08-2.09-2.08,1.34-2.21,3.38-1.39,7.25,1.02,4.75.44,7.83-2.83,9.94-3.43,2.22-8.07,1.62-11.51-3.69-1.41-2.17-2.28-4.97-2.27-6.69l2.9-.79Z"/>
  <path class="cls-1" d="M103.08,364.85l-5.22-6.28,2.24-1.86,12.69,15.28-2.23,1.86-5.24-6.31-18.11,15.06-2.24-2.69,18.11-15.06Z"/>
  <path class="cls-1" d="M124.99,383.81l11.08,9.28-1.84,2.2-8.39-7.03-5.64,6.75,7.75,6.49-1.81,2.17-7.75-6.49-7.68,9.19-2.69-2.25,16.96-20.32Z"/>
  <path class="cls-1" d="M144.14,398.78l-15.18,21.69-2.87-2.01,15.18-21.69,2.87,2.01Z"/>
  <path class="cls-1" d="M137.89,426.57l12.82-23.17,3.34,1.86.99,15.88c.2,3.66.24,6.88,0,9.85l.12.02c1.43-3.25,2.92-6.11,4.92-9.71l5.36-9.69,2.85,1.59-12.82,23.17-3.06-1.7-.94-15.89c-.21-3.49-.31-7-.07-10.15l-.12-.02c-1.44,3.02-2.95,5.82-5.08,9.67l-5.48,9.9-2.85-1.59Z"/>
  <path class="cls-1" d="M172.51,434.72l-5.57,6.79-3.34-1.28,17.98-21.47,3.86,1.48-.89,28.03-3.46-1.33.3-8.81-8.88-3.41ZM181.71,435.39l.23-8.08c.06-1.83.25-3.44.42-5.01l-.08-.03c-.92,1.29-1.88,2.69-2.97,4l-5.18,6.22,7.58,2.91Z"/>
  <path class="cls-1" d="M193.16,450.8l5.84-25.84,3.72.85,5.38,14.97c1.22,3.46,2.15,6.54,2.76,9.46h.12c.47-3.53,1.1-6.69,2.01-10.72l2.44-10.81,3.18.73-5.84,25.84-3.41-.78-5.33-15c-1.17-3.29-2.25-6.64-2.9-9.73h-.12c-.54,3.31-1.21,6.43-2.18,10.72l-2.49,11.04-3.18-.73Z"/>
  <path class="cls-1" d="M242.79,457.66c-1.28.52-3.91.94-7.15.66-7.53-.63-12.77-5.8-12.06-14.5.68-8.31,6.79-13.4,15.07-12.71,3.29.28,5.37,1.16,6.24,1.71l-1.1,2.71c-1.22-.73-3.04-1.36-5.26-1.54-6.26-.52-10.74,3.09-11.31,10.02-.53,6.51,2.9,10.94,9.36,11.48,2.14.18,4.31-.07,5.75-.62l.45,2.8Z"/>
  <path class="cls-1" d="M254.37,431.83l.39,26.5-3.5.04-.39-26.5,3.5-.05Z"/>
  <path class="cls-1" d="M268.49,449.28l-1.81,8.6-3.55.4,6.06-27.36,4.11-.47,12.11,25.3-3.67.42-3.8-7.96-9.44,1.07ZM276.95,445.63l-3.52-7.28c-.79-1.65-1.37-3.17-1.94-4.65h-.08c-.22,1.58-.43,3.26-.79,4.93l-1.73,7.91,8.06-.91Z"/>
  <path class="cls-1" d="M287.65,428.19l3.4-.81,5.53,22.99,11.13-2.66.67,2.79-14.54,3.47-6.2-25.78Z"/>
  <path class="cls-1" d="M330.43,433.79l.92,8.74-3.26,1.48-2.65-27.92,3.76-1.71,19.29,20.37-3.36,1.53-6.06-6.41-8.65,3.92ZM337.36,427.7l-5.58-5.85c-1.26-1.33-2.27-2.6-3.27-3.83l-.07.03c.27,1.56.6,3.23.76,4.93l.79,8.07,7.38-3.35Z"/>
  <path class="cls-1" d="M342.26,408.39c1.58-1.44,3.56-2.99,5.86-4.48,4.18-2.69,7.79-3.61,10.91-3.09,3.21.51,6.04,2.33,8.36,5.94,2.34,3.64,3.09,7.37,2.34,10.75-.8,3.46-3.55,6.82-7.92,9.64-2.11,1.35-3.87,2.35-5.45,3.13l-14.1-21.9ZM357.85,426.24c.8-.37,1.89-1.03,3.03-1.76,6.25-4.02,7.38-9.61,3.5-15.64-3.35-5.28-8.51-6.69-14.66-2.73-1.5.97-2.55,1.83-3.22,2.49l11.35,17.63Z"/>
  <path class="cls-1" d="M386.43,409l-23.94-14.39,2.86-2.46,11.68,7.19c3.18,1.99,6.03,3.79,8.63,5.65l.06-.05c-1.43-2.82-2.79-6.06-4.12-9.49l-5.11-12.89,2.8-2.41,10.03,26.36-2.89,2.49Z"/>
  <path class="cls-1" d="M385.15,373.69l19.19,18.29-2.41,2.53-19.19-18.3,2.41-2.53Z"/>
  <path class="cls-1" d="M407.78,382.06c1.73-.6,3.7-1.88,5.18-3.75,2.2-2.77,2.03-5.54-.06-7.21-1.91-1.52-3.94-1.3-7.23.7-3.95,2.45-7.41,3.15-10.31.85-3.23-2.57-3.49-7.19-.26-11.27,1.68-2.12,3.43-3.32,4.67-3.8l1.6,2.48c-.92.34-2.61,1.27-4.12,3.17-2.27,2.87-1.44,5.3-.02,6.43,1.94,1.54,3.91,1.02,7.31-1,4.17-2.48,7.27-2.91,10.32-.48,3.2,2.54,4.13,7.14.21,12.09-1.6,2.03-3.97,3.75-5.6,4.28l-1.68-2.5Z"/>
  <path class="cls-1" d="M426.23,338.04c7.82,4.63,9.17,11.94,5.7,17.83-3.61,6.13-10.82,7.59-17.73,3.51-7.24-4.29-9.32-11.61-5.69-17.77,3.73-6.33,10.91-7.58,17.71-3.56ZM415.99,356.18c4.91,2.9,10.85,2.82,13.63-1.91,2.79-4.72.06-9.94-5.12-13-4.57-2.7-10.72-3.11-13.65,1.85-2.93,4.97.16,10.12,5.13,13.06Z"/>
  <path class="cls-1" d="M417.86,325.88c.37-1.74,1.12-4.18,2.01-6.36,1.4-3.42,2.98-5.4,4.94-6.35,1.59-.76,3.56-.81,5.49-.02,3.2,1.32,4.5,4.26,4.32,7.2l.11.04c1.42-1.61,3.64-2.03,6.42-1.57,3.75.6,6.35.98,7.51.86l-1.36,3.31c-.89.11-3.19-.2-6.52-.79-3.68-.66-5.51.18-6.81,3.04l-1.24,3.02,10.61,4.38-1.31,3.2-24.17-9.97ZM430.33,327.27l1.34-3.28c1.4-3.42.44-6.36-2.36-7.51-3.16-1.3-5.49.45-6.88,3.83-.63,1.54-.96,2.66-1.04,3.27l8.94,3.69Z"/>
  <path class="cls-1" d="M452.74,306.04l-10.85-2.96-16.93,4.2,1.04-3.84,8.04-1.72c2.19-.43,3.97-.81,5.97-1.13l.02-.08c-1.48-1.15-2.9-2.52-4.57-4.05l-6.05-5.65,1.02-3.76,12.34,12.64,10.88,2.97-.91,3.38Z"/>
  <path class="cls-1" d="M293.24,337.62c-18.6-27.19-36.76-55.48-53.83-83.66-6.33-10.65-14.18-20.49-19.94-31.5-5.73-11.14-9.8-22.86-13.02-35.08-2.1-8.45-3.79-16.86-4.08-25.76,0,0,2.4-1.24,2.4-1.24,7.08,5.38,12.96,11.63,18.64,18.24,8.1,9.7,15.3,19.8,21.06,30.92,5.64,11.07,9.12,23.17,14.14,34.5,2.45,5.67,7.35,17.14,9.74,22.84,9.4,22.86,18.8,46.29,27.3,69.5,0,0-2.4,1.24-2.4,1.24h0Z"/>
  <path class="cls-3" d="M406.77,311.31c-10.42,20.83-26.04,41.66-34.91,46.51-8.86,4.85-7.6-8.11,2.82-28.94,10.42-20.83,26.04-41.66,34.91-46.51,8.86-4.85,7.6,8.11-2.82,28.94Z"/>
  <path class="cls-5" d="M249.07,322.75c-38.69,0-71.04-30.28-73.65-68.92-1.33-19.66,5.08-38.65,18.04-53.46,12.96-14.81,30.92-23.67,50.57-24.96,1.63-.11,3.27-.16,4.9-.16,38.69,0,71.04,30.28,73.65,68.93,1.33,19.66-5.08,38.65-18.04,53.46-12.96,14.81-30.92,23.67-50.57,24.96-1.63.11-3.27.16-4.9.16Z"/>
  <path class="cls-5" d="M248.93,175.5c38.56,0,70.8,30.17,73.4,68.69,1.32,19.59-5.06,38.51-17.98,53.27-12.91,14.76-30.81,23.59-50.39,24.87-1.62.11-3.26.16-4.88.16-38.56,0-70.8-30.17-73.4-68.69-1.32-19.59,5.06-38.51,17.98-53.27,12.91-14.76,30.81-23.59,50.39-24.87,1.62-.11,3.26-.16,4.88-.16h0M248.93,175c-1.63,0-3.27.05-4.91.16-40.77,2.67-71.6,37.9-68.84,78.68,2.64,39.13,35.24,69.16,73.9,69.16,1.63,0,3.27-.05,4.91-.16,40.77-2.67,71.6-37.9,68.84-78.68-2.64-39.13-35.24-69.16-73.9-69.16h0Z"/>
  <path class="cls-2" d="M290.2,169.01c4.57,8.75,1.25,19.43-7.42,23.85-8.67,4.42-19.41.91-23.98-7.83-4.57-8.75-1.25-19.43,7.42-23.85,8.67-4.42,19.41-.91,23.98,7.83Z"/>
  <path class="cls-1" d="M274.84,196.77c-7.21,0-14.23-3.96-17.82-10.81-2.48-4.75-2.96-10.15-1.35-15.2,1.58-4.96,5-8.99,9.64-11.35,9.63-4.91,21.59-1.01,26.66,8.69,2.48,4.75,2.96,10.15,1.35,15.2-1.58,4.96-5,8.99-9.64,11.36-2.83,1.44-5.85,2.12-8.85,2.12ZM274.17,161.27c-2.38,0-4.79.54-7.04,1.69-3.67,1.87-6.39,5.07-7.64,9.01-1.29,4.03-.9,8.33,1.08,12.13,4.06,7.77,13.62,10.9,21.3,6.98,3.67-1.87,6.39-5.07,7.64-9.01,1.28-4.03.9-8.33-1.09-12.13-2.87-5.49-8.49-8.67-14.26-8.67Z"/>
</svg>