<?xml version="1.0" encoding="UTF-8"?>
<svg id="Layer_1" data-name="Layer 1" xmlns="http://www.w3.org/2000/svg" viewBox="0 0 360 300.01">
  <defs>
    <style>
      .cls-1 {
        fill: #fff;
        stroke-width: 12px;
      }

      .cls-1, .cls-2, .cls-3, .cls-4 {
        stroke: #000;
        stroke-miterlimit: 10;
      }

      .cls-2 {
        stroke-width: 12.08px;
      }

      .cls-2, .cls-3, .cls-4 {
        fill: none;
      }

      .cls-3 {
        stroke-width: 6px;
      }

      .cls-4 {
        stroke-width: 10.39px;
      }
    </style>
  </defs>
  <g>
    <line class="cls-4" x1="12.99" y1="165.32" x2="330.35" y2="165.32"/>
    <path d="M13.68,178.99c-7.55,0-13.68-6.12-13.68-13.68s6.12-13.68,13.68-13.68,13.68,6.12,13.68,13.68-6.12,13.68-13.68,13.68Z"/>
    <path d="M323.82,165.32l-7.97-13.11.45-.3,21.37,8.49c7.45,1.64,14.89,3.27,22.34,4.91-7.45,1.64-14.89,3.27-22.34,4.91l-21.37,8.49-.45-.22,7.97-13.18Z"/>
  </g>
  <path d="M114.79,34.29c-.1-.12-.21-.23-.3-.32-7.21-7.21-17.89-9.81-30.08-7.32-11.21,2.29-22.56,8.73-31.95,18.12-9.39,9.39-15.82,20.74-18.12,31.95-2.49,12.19.11,22.87,7.3,30.06.11.11.21.21.33.31l4.53,4.43L119.21,38.82l-4.42-4.52Z"/>
  <path d="M325.67,76.72c-2.29-11.21-8.73-22.56-18.12-31.95-20.42-20.42-47.67-25.16-62.02-10.81-.11.11-.22.23-.34.36l-4.37,4.54,72.64,72.64,4.54-4.37c.12-.11.24-.22.34-.32,7.21-7.21,9.81-17.89,7.32-30.08Z"/>
  <circle class="cls-1" cx="180" cy="165.32" r="120"/>
  <line class="cls-2" x1="265" y1="253.32" x2="307.43" y2="295.74"/>
  <line class="cls-2" x1="52.57" y1="295.74" x2="95" y2="253.32"/>
  <line class="cls-3" x1="180" y1="45.32" x2="180" y2="15.32"/>
  <ellipse class="cls-3" cx="182" cy="12" rx="27" ry="9"/>
  <g>
    <path d="M190.85,253.32l-6.18-1.83c1.65-1.48,3.48-2.91,3.47-3.72l-.11-11.36c-.01-1.08,1.93-3.49,3.11-3.63,18.98-2.18,34.09-18.29,33.64-37.91.77-7.86-1.35-14.63-4.56-21.58,5.57,6.07,7.03,14.34,7.52,22.75.73,12.55-3.99,23.34-13.59,31.24-10.99,9.04-12.68,5.14-23.12,10.28l-.17,15.75Z"/>
    <path d="M203.82,141.44c2.92.29,7.35.53,10.24-.41,2.23-.73,5.39-5.71,5.52-8.1.71-12.83.61-9.35-3.04-18.93,6.67,8.89,8.67,15.51,4.25,26.36-2.42,5.93-13.11,5.93-16.96,1.07Z"/>
    <path d="M155.92,231.09c-1.99.14-4.61-.37-5.52-1.25l-3.52-3.38,9.04,4.63Z"/>
    <path d="M180.94,239.24c-.05-.76-1.77-3.07-2.66-3.03-1.55.07-4.3,2.38-4.33,3.91l-.32,13.09-5.27-1.75,3.11-2.89.29-14.41,6.59-.7,2.17-.24c.44-.05.37-2-.05-2.12s-1.67-.4-2.17-.39l-9.37.19-.62,17.04c-6.25-.78-2.41-8.92-4.22-12.41-1.54-1.03-4.42-2.4-7.11-3.82l4.56.15,2.13.07c.41.01.56-1.3.47-1.51-5.43-1.22-12.39-3.18-17.41-6.09-8.01-4.64-11.16-8.21-13.89-18.11-2.06-7.48.81-19.09,9.31-20.16,4.98-.63,10.42,2.98,12.22,7.65,7.41,19.33-14.9,19.28-7.1,25.7l7.95-7.73c4.35-4.23,3.16-10.86,2.03-16.92,4.09,4.37,5.54,10.95,2.93,17.2-1.08,2.58-4.78,5.8-7.46,7.78l-.19,3.26,12.02,1.84.09-51.44-4.99-4.68s1.3.35,2.53.69l1.51.42c.34.09,1.14-.72.83-.87-.36-.17-1.83-.89-2.29-1.17l-10.69-6.57c-15.57-9.58-20.27-27.32-13.69-43.59,5.5-13.6,13.61-17.5,26.53-22.86l.42-17.43c2.23.73,4.05,2.79,4.02,4.85l-.16,10.24c0,.49,1.2,1.77,1.57,2.07s1.34-1.51,1.33-2.17l-.05-11.19c.82.65,2.45,3.54,2.47,4.86l.11,7.25,6.67,1.2.39-17c1.21-.51,4.06,2.16,4.06,3.54l.06,11.41c0,.48.33,1.86.41,2.22.13.55,2.18-.49,2.23-1.06l.84-11.35c5.49,6.94-1.75,12.67,5.77,15.26,6.57,2.27,11.77,5.77,15.99,11,6.93,8.59,10.27,21.04,2.4,29.18-2.83,2.93-9.38,2.42-12.26-.52-3.44-3.51-5.75-9.22-4.68-14.09s5.32-7.44,9.29-10.4c5.44-4.07-12.22-14.63-19.97-12.98l-.07,46.61c0,.73.56,2.29.69,2.66.18.5,2.16-.67,2.17-1.56l.14-44.52c5.79-.5,10.14,1.66,14.22,4.5l-11.4-1.87-.12,43.81c-.01,3.9,14.57,6.37,21.35,15.68l3.57,4.91c10.75,14.79,8.23,39.19-6.28,51.19-7.06,5.84-15.08,8.44-24.14,9.96l-.33,16.2-3.63-.13-.5-7.87ZM171.64,102.56c2.14-.5,5.14-1.1,6.6-1.31l2.82-.41c.54-.08-1.12-2.16-1.67-2.1l-10.73,1.2v39.79c.01.88,1.32,2.28,1.59,2.59s1.28-1.41,1.28-1.94l.1-37.83ZM149.7,126.74c-3.63-22.24,20.44-19.79,13.95-25.84-11.61,3.66-20.3,12.74-16.01,26.3.74,2.34,2.25,4.3,4.53,6.15l-2.47-6.61ZM180.84,145.81l.09-40.94-4.67.07c-1.07.02-2.38,3.12-2.37,4.28l.15,33.42c.54,1.75,5.38,3.73,6.8,3.17ZM164.58,139.22l-.04-30.6c-7.46,3.13-11.98,9.16-12.38,16.71-.41,7.61,4.48,14,12.43,13.89ZM200.05,126.42l-1.4,3.89,3.54-1.21-1.05,3.29c-.14-.03.98.19,2.29.43.17.32.56,1.35.93,1.21l2.93-1.06.46,2.53,3.11-2.63-1.06-2.42,3.06-3.68.46-2.56c-1.29.74-2.99,1.63-3.4,2.02,1.44-2.49,4.46-6.29,1.07-5.76l.21-2.74-1.36-.97-.4-3.62-9.38,9.56c-.43.44-.76,3.53,0,3.71ZM141.23,116.71l.1,2.35-.1-2.35ZM140.67,129.62l-2.81,4.52s.68.55,1.56,1.25l-.4,2.22c-.08.45.49.72,1.6,1.49-.66,1.24-.84,2.98.32,4.12l.89,3.07c.83-.6,3.27-2.16,3.81-2.91l-2.71,4.42c-.21-.19.47.42,1.61,1.46l2.36,2.49.36,2.68,5.96-4.59-2.22,3.62c-.38.62-.66,2.49-.55,2.88l5.27-4.12-2.78,4.43c-.22-.18.46.38,1.69,1.38l1.05,1.78c.25.42,1.48-.16,2.48-.38l.53,2.4,5.74-4.42-3.01,5.32,4.46-1.93-.61,2.73,1.92.89c.11.24.52,1.77.97,1.69l2.59-.45.58,2.66c1.24-.86,2.78-1.79,3.46-2.41l-.14,2.8,2.55-.19c.41.94,1.66,1.13,3.72,1.03.5.58,1.26,1.35,2.4,2.4.13.26.55,1.4.93,1.28l3.15-1.02c.09.26.47,1.8.95,1.71l2.77-.48,2.47,2.35c.16.31.58,1.58,1.01,1.53l2.53-.32.29,1.93c.07.5,1.06.06,2.52-.38l2.43,2.27,2.29,2.44.53,2.83,7.57-7.38c.2-.47.7,1.67.31,2.07l-6.94,7.08,2.38.67.2,1.96,3.8-.51-4.05,4.41,3.94.91-2.63,2.81c-.29-.06,1.97.5,2.58.66l-1.88,3.46c-.07-.05.63.46,1.71,1.26l-1.84,2.59-.24,2.66,5.68-5.07-1.04-2.6,1.49-2.47c.39-.65.12-2.32-.26-3.49l1.45-4.08-5.44,3.81c.87-1.46,1.64-2.7,2.52-4.02l3.22-4.85-5.24,3.66.45-2.57,4.45-4.24-2.59-.6.95-2.15c.23-.52-.85-1.5-1.43-2.21l.3-3.22-6,4.63,3.23-5.22c1.07-1.55,1.35-2.16-.2-.62l-4.4,2.47,2.43-3.99c.29-.47.97-1.57,1.14-1.87.24-.42-.44-.81-1.13-1.16l-.55-1.92c-.2-.47-1.6.75-2.09,1.11l-4.76,3.6c3.46-5.5,4.91-5.44,4.14-7.59l-5.35,3.95,2.71-4.44c.15-.25-.58-.63-1.78-1.32l-2.38-2.3-.61-1.85c-.21-.44-1.59.77-2.09,1.21l-5.99,5.21,3.61-5.4c.42-.63.93-2.22,1.27-3.59l-6.14,5.2c.81-1.23,1.98-3.54,2.9-5.18l-2.9.24c-.49-.6-1.25-1.37-2.42-2.41l-1.73-1.58c-1.84,1.38-3.62,2.48-4.74,3.52l2.21-5.16-3.42,1.46c-.01-.24-.05-1.45-.15-1.5-.13-.07-1.96-.26-2.49-.46l-3.58-1.32c-.11-.24-.51-1.39-.89-1.27l-3.07.95c-.3-.75-1.09-1.58-2.46-2.45-.12-.3-.65-1.61-1.11-1.56l-2.57.28c-.11-.24-.52-1.67-.98-1.58l-2.65.52-.3-1.9c-.08-.53-1.08-.07-2.73.58.05-.47-.36-1.78-.82-1.73l-2.73.39c-.34-.69-1.13-1.44-2.52-2.63-.13-.75-.4-2.35-.38-2.19l-7.69,5.9,5.44-6.96-2.35-.56c-.08-.39-.24-1.18-.38-1.53-.21-.52-1.32-.8-1.88-.98l.28-2.07c.08-.58-1.03-1.01-1.62-1.28l.96-2.48c.22-.57-.75-1.42-1.39-2.27l.04-3.59-3.36,4.81,3.2.14-4.67,5.58,3.92-.85ZM171.64,174.7c3.27.63,5.19,1.02,6.16,1.44l2.45,1.06c.5.21,1.24-1.84.75-2.06s-1.59-.72-2.26-.92l-10.01-3.03-.1,52.27c0,.86,1.24,3.11,1.58,2.67s1.35-1.87,1.35-2.51l.08-48.91ZM180.97,225.25l-.17-45.5c0-1.79-6.73-2.53-6.74-.8l-.21,46.68c2.81.2,5.35.12,7.12-.38ZM191.04,224c12.39-4.45,16.48-10.67,16.35-21.65-.11-9.15-5.86-15.1-5.75-15.07l-2.46-.8c.04-2.31-9.63-8.57-13.86-8.46l-.17,44.25c0,.94.93,2.65,1.26,3.16.22.33,1.65-1.53,1.65-2.21l.15-42.24c3.73,1.06,6.79,2.52,9.36,4.28l-6.65-.99.11,39.73ZM136.85,199.59l-2.41,4.22,3.93-1.32-1.89,3.99,1.68,1.02-.16,2.02c-.05.64,1.24,1.47,1.75,1.83l.2,2.49,9.68-8.9c.66-.6.59-2.87-.09-3.82l1.27-3.88c.06.04-.51-.38-1.26-.92l.28-2.27c.08-.62-.79-1.05-1.49-1.5l-.37-2.8-4.91,3.73c.46-.95.87-2.76,1.26-4.62l-9.02,8.32,1.55,2.41ZM210.68,212.72l1.5-2.29c.24-.37-1.75-.35-2,.03l-2.67,4.02c-.29,0,1.33,1,1.62.56l1.55-2.32Z"/>
    <path d="M139.74,211.36l.27-1.69,9.52-8.54-9.45,10.5c.97.78.6.49-.33-.27Z"/>
    <path d="M165.9,160.79c3.38-4.38,7.17-8.17,11.04-11.11l-10,10.84-1.04.26Z"/>
    <path d="M212.21,203.47c.49-.69,2.29-2.27,2.56-2.41-.74.97-2.14,2.36-2.56,2.41Z"/>
    <path d="M167.2,164.4c3.06-3.72,8.88-9.67,12.39-12.76-3.58,4.91-8.06,9.32-12.39,12.76Z"/>
    <path d="M140.62,139.1l4.94-4.96-4.94,4.96Z"/>
    <path d="M174.81,165.89c3.64-4.97,7.98-9.33,12.47-12.49-3.94,4.25-8.13,8.53-12.47,12.49Z"/>
    <path d="M200.05,126.42c2.61-3.56,6.08-7.02,9.78-9.65-3,3.4-6.38,6.76-9.78,9.65Z"/>
    <path d="M170.76,165.64c3.15-3.47,6.55-7.05,10.04-10.29-.29.68-1.21,2.66-1.52,2.93l-8.53,7.37Z"/>
    <path d="M202.19,129.1c2.49-3.01,5.77-6.29,8.8-8.63-2.3,3-5.22,5.95-8.8,8.63Z"/>
    <path d="M177.21,168.51c3.39-4.62,7.75-8.97,12.48-12.7-3.82,4.41-8.11,8.73-12.48,12.7Z"/>
    <polygon points="186.94 171.72 199.13 159.47 200.07 160.41 187.88 172.66 186.94 171.72"/>
    <path d="M203.42,132.82c2.01-2.2,4.28-4.53,6.5-6.59-1.4,2.42-4.79,5.95-6.5,6.59Z"/>
    <path d="M140.67,129.62l1.3-1.33-1.3,1.33Z"/>
    <path d="M180.93,169.54l5.29-6.05c.73-.84,2.71-2.09,3.47-2.74-2.16,3.29-6.23,6.93-8.76,8.79Z"/>
    <path d="M207.28,132.98l2.51-2.52c-.63.76-1.84,1.93-2.51,2.52Z"/>
    <path d="M183.33,171.94l5.88-6.35c.23-.25,1.47-.81,1.74-1.05-2.12,3.18-5.02,5.78-7.62,7.4Z"/>
    <path d="M139.42,135.39l3.88-3.75-3.88,3.75Z"/>
    <path d="M193.6,175.77c.72-1.97,5.89-6.57,7.49-7.75-1.26,2.07-5.73,6.71-7.49,7.75Z"/>
    <polygon points="199.39 177.95 209.16 168.32 210.15 169.33 200.37 178.96 199.39 177.95"/>
    <path d="M197.15,176.98c1.38-1.66,3.44-4.01,5.15-5.31-1.61,2.55-3.35,4.49-5.15,5.31Z"/>
    <path d="M202.39,180.8l2.15-2.88c.48-.64,2.04-1.65,2.72-2.04-.95,1.57-2.06,2.87-3.25,4.45l-1.62.47Z"/>
    <path d="M145.65,143.37l2.79-3.86c.99-.74,2.17-1.62,2.11-1.58l-.33,1.63-4.57,3.81Z"/>
    <path d="M204.67,183.25c1.02-1.18,2.74-3.05,3.97-3.99-.97,1.57-2.52,3.3-3.97,3.99Z"/>
    <path d="M208.54,188.52c1.63-2.16,3.78-4.33,6.28-6.31l-6.28,6.31Z"/>
    <polygon points="144.12 148.83 152.58 140.1 153.58 141.07 145.11 149.81 144.12 148.83"/>
    <path d="M138.36,202.49c2.49-3.71,5.96-7.24,9.97-9.94-3.01,3.22-6.23,6.44-9.97,9.94Z"/>
    <path d="M140.94,143.22c.55-.64,1.12-1.25,1.53-1.57l-1.53,1.57Z"/>
    <polygon points="146.74 151.59 156.16 141.5 157.1 142.38 147.68 152.47 146.74 151.59"/>
    <polygon points="190.41 172.7 201.43 161.67 202.62 162.88 191.6 173.91 190.41 172.7"/>
    <path d="M153.23,149.83c1.17-1.91,4.76-6.08,6.41-6.6-1.81,2.13-4.19,4.89-6.41,6.6Z"/>
    <path d="M136.85,199.59c1.79-2,4.07-4.5,6.21-6.12-1.28,2.65-4.24,5.34-6.21,6.12Z"/>
    <path d="M155.73,152.21c2.13-3.38,5-6,7.54-7.91-2.17,2.88-4.83,5.79-7.54,7.91Z"/>
    <polygon points="154.15 157.54 166.42 145.06 167.51 146.14 155.24 158.62 154.15 157.54"/>
    <path d="M212.37,198.76c.74-1.21,2.21-2.74,3.62-3.65l-3.62,3.65Z"/>
    <path d="M138.15,207.5c3.2-4.07,7.11-8.05,11.39-11.18-3.49,3.92-7.38,7.81-11.39,11.18Z"/>
    <path d="M158.17,159.42c3.53-3.94,7.36-7.81,11.24-11.39-3.16,3.93-6.81,7.79-11.24,11.39Z"/>
    <path d="M164.45,157.4c-.72-.51,7.89-9.47,8.92-9.04-2.62,2.85-5.47,5.7-8.92,9.04Z"/>
    <circle cx="153.9" cy="165.17" r=".63"/>
    <circle cx="157.67" cy="167.69" r=".63"/>
  </g>
</svg>