<?xml version="1.0" encoding="UTF-8"?>
<svg id="Layer_1" data-name="Layer 1" xmlns="http://www.w3.org/2000/svg" xmlns:xlink="http://www.w3.org/1999/xlink" viewBox="0 0 306 792">
  <defs>
    <style>
      .cls-1, .cls-2, .cls-3, .cls-4, .cls-5, .cls-6, .cls-7, .cls-8, .cls-9, .cls-10, .cls-11 {
        stroke-miterlimit: 10;
      }

      .cls-1, .cls-2, .cls-3, .cls-4, .cls-5, .cls-7, .cls-8, .cls-12, .cls-10, .cls-11 {
        stroke: #000;
      }

      .cls-1, .cls-2, .cls-3, .cls-4, .cls-5, .cls-7, .cls-12, .cls-11 {
        fill: #231f20;
      }

      .cls-1, .cls-2, .cls-4, .cls-5, .cls-6, .cls-9, .cls-11 {
        stroke-width: .25px;
      }

      .cls-1, .cls-3, .cls-5, .cls-6, .cls-9 {
        font-size: 16px;
      }

      .cls-2, .cls-3, .cls-4, .cls-7, .cls-13 {
        font-family: MyriadPro-Regular, 'Myriad Pro';
      }

      .cls-2, .cls-4 {
        font-size: 12px;
      }

      .cls-2, .cls-14 {
        letter-spacing: .07em;
      }

      .cls-15 {
        letter-spacing: .1em;
      }

      .cls-16 {
        fill: #0f0f0f;
      }

      .cls-17 {
        letter-spacing: 0em;
      }

      .cls-18 {
        letter-spacing: .08em;
      }

      .cls-19 {
        letter-spacing: .07em;
      }

      .cls-20, .cls-21 {
        font-family: SegoeMDL2Assets, 'Segoe MDL2 Assets';
      }

      .cls-22 {
        fill: #fff;
      }

      .cls-23 {
        letter-spacing: .07em;
      }

      .cls-24 {
        fill: #d7182a;
      }

      .cls-25, .cls-5, .cls-6, .cls-26, .cls-27, .cls-21, .cls-12 {
        letter-spacing: .08em;
      }

      .cls-25, .cls-28 {
        font-family: SegoeFluentIcons, 'Segoe Fluent Icons';
      }

      .cls-6, .cls-27, .cls-9, .cls-29 {
        font-family: SegoeUISymbol, 'Segoe UI Symbol';
      }

      .cls-6, .cls-30 {
        fill: #bebebe;
        stroke: #bebebe;
      }

      .cls-7 {
        font-size: 12px;
        stroke-width: .25px;
      }

      .cls-31 {
        stroke-width: .75px;
      }

      .cls-32 {
        letter-spacing: .08em;
      }

      .cls-33 {
        letter-spacing: .08em;
      }

      .cls-34 {
        letter-spacing: 0em;
      }

      .cls-8 {
        fill: url(#linear-gradient);
      }

      .cls-8, .cls-10 {
        stroke-width: 3px;
      }

      .cls-35 {
        fill: #939598;
      }

      .cls-36 {
        letter-spacing: 0em;
      }

      .cls-37 {
        letter-spacing: .07em;
      }

      .cls-38 {
        letter-spacing: .1em;
      }

      .cls-39, .cls-30 {
        letter-spacing: .07em;
      }

      .cls-40 {
        letter-spacing: .07em;
      }

      .cls-41 {
        letter-spacing: .08em;
      }

      .cls-42 {
        letter-spacing: .06em;
      }

      .cls-43 {
        letter-spacing: .05em;
      }

      .cls-44 {
        letter-spacing: .08em;
      }

      .cls-45 {
        fill: #010101;
      }

      .cls-46 {
        letter-spacing: .04em;
      }

      .cls-10 {
        fill: none;
      }

      .cls-47 {
        letter-spacing: .06em;
      }

      .cls-11 {
        font-family: Lato-Medium, Lato;
        font-size: 20px;
        font-weight: 500;
        letter-spacing: .07em;
      }

      .cls-48 {
        letter-spacing: .07em;
      }

      .cls-49 {
        stroke-width: .5px;
      }

      .cls-50 {
        letter-spacing: 0em;
      }

      .cls-51 {
        letter-spacing: .07em;
      }
    </style>
    <linearGradient id="linear-gradient" x1=".46" y1="443.39" x2="306.46" y2="443.39" gradientUnits="userSpaceOnUse">
      <stop offset="0" stop-color="#fff"/>
      <stop offset="1" stop-color="#231f20"/>
    </linearGradient>
  </defs>
  <g>
    <text class="cls-9" transform="translate(154.97 117.86)"><tspan class="cls-12" x="0" y="0" xml:space="preserve">   </tspan><tspan class="cls-30" x="16.75" y="0">▁▂</tspan></text>
    <text class="cls-6" transform="translate(206.17 117.76)"><tspan x="0" y="0">▃▄▅</tspan></text>
    <text class="cls-6" transform="translate(257.17 117.76)"><tspan x="0" y="0">▆▇█</tspan></text>
  </g>
  <g>
    <text class="cls-9" transform="translate(154.97 191.68)"><tspan class="cls-12" x="0" y="0" xml:space="preserve">   </tspan><tspan class="cls-30" x="16.75" y="0">▁▂</tspan></text>
    <text class="cls-6" transform="translate(206.17 191.57)"><tspan x="0" y="0">▃▄▅</tspan></text>
    <text class="cls-6" transform="translate(257.17 191.57)"><tspan x="0" y="0">▆▇█</tspan></text>
  </g>
  <g>
    <text class="cls-9" transform="translate(154.94 265.18)"><tspan class="cls-12" x="0" y="0" xml:space="preserve">   </tspan><tspan class="cls-30" x="16.75" y="0">▁▂</tspan></text>
    <text class="cls-6" transform="translate(206.14 265.07)"><tspan x="0" y="0">▃▄▅</tspan></text>
    <text class="cls-6" transform="translate(257.13 265.07)"><tspan x="0" y="0">▆▇█</tspan></text>
  </g>
  <g>
    <text class="cls-9" transform="translate(154.94 338.83)"><tspan class="cls-12" x="0" y="0" xml:space="preserve">   </tspan><tspan class="cls-30" x="16.75" y="0">▁▂</tspan></text>
    <text class="cls-6" transform="translate(206.14 338.72)"><tspan x="0" y="0">▃▄▅</tspan></text>
    <text class="cls-6" transform="translate(257.13 338.72)"><tspan x="0" y="0">▆▇█</tspan></text>
  </g>
  <g>
    <text class="cls-9" transform="translate(154.94 412.49)"><tspan class="cls-12" x="0" y="0" xml:space="preserve">   </tspan><tspan class="cls-30" x="16.75" y="0">▁▂</tspan></text>
    <text class="cls-6" transform="translate(206.14 412.38)"><tspan x="0" y="0">▃▄▅</tspan></text>
    <text class="cls-6" transform="translate(257.13 412.38)"><tspan x="0" y="0">▆▇█</tspan></text>
  </g>
  <g>
    <text class="cls-9" transform="translate(154.94 486.14)"><tspan class="cls-12" x="0" y="0" xml:space="preserve">   </tspan><tspan class="cls-30" x="16.75" y="0">▁▂</tspan></text>
    <text class="cls-6" transform="translate(206.14 486.04)"><tspan x="0" y="0">▃▄▅</tspan></text>
    <text class="cls-6" transform="translate(257.13 486.04)"><tspan x="0" y="0">▆▇█</tspan></text>
  </g>
  <g>
    <text class="cls-9" transform="translate(154.94 559.8)"><tspan class="cls-12" x="0" y="0" xml:space="preserve">   </tspan><tspan class="cls-30" x="16.75" y="0">▁▂</tspan></text>
    <text class="cls-6" transform="translate(206.14 559.69)"><tspan x="0" y="0">▃▄▅</tspan></text>
    <text class="cls-6" transform="translate(257.13 559.69)"><tspan x="0" y="0">▆▇█</tspan></text>
  </g>
  <g>
    <text class="cls-9" transform="translate(154.94 633.46)"><tspan class="cls-12" x="0" y="0" xml:space="preserve">   </tspan><tspan class="cls-30" x="16.75" y="0">▁▂</tspan></text>
    <text class="cls-6" transform="translate(206.14 633.35)"><tspan x="0" y="0">▃▄▅</tspan></text>
    <text class="cls-6" transform="translate(257.13 633.35)"><tspan x="0" y="0">▆▇█</tspan></text>
  </g>
  <g>
    <text class="cls-9" transform="translate(154.94 707.11)"><tspan class="cls-12" x="0" y="0" xml:space="preserve">   </tspan><tspan class="cls-30" x="16.75" y="0">▁▂</tspan></text>
    <text class="cls-6" transform="translate(206.14 707)"><tspan x="0" y="0">▃▄▅</tspan></text>
    <text class="cls-6" transform="translate(257.13 707)"><tspan x="0" y="0">▆▇█</tspan></text>
  </g>
  <text class="cls-7" transform="translate(81.89 68.42)"><tspan class="cls-23" x="0" y="0">N</tspan><tspan class="cls-48" x="8.8" y="0">A</tspan><tspan class="cls-32" x="16.99" y="0">ME</tspan></text>
  <g>
    <rect class="cls-10" x=".46" width="306" height="792"/>
    <line class="cls-10" x1="255.45" y1="54" x2="255.45" y2="738"/>
    <line class="cls-10" x1="153.46" y1="54" x2="153.46" y2="738"/>
    <line class="cls-10" x1="204.45" y1="54" x2="204.45" y2="738"/>
    <line class="cls-10" x1=".46" y1="54" x2="306.46" y2="54"/>
    <line class="cls-10" x1=".46" y1="738" x2="306.46" y2="738"/>
  </g>
  <text class="cls-3" transform="translate(27.42 22.58)"><tspan class="cls-31"><tspan class="cls-17" x="0" y="0">F</tspan><tspan class="cls-39" x="7.74" y="0">AR F</tspan><tspan class="cls-46" x="42.13" y="0">L</tspan><tspan class="cls-39" x="50.3" y="0">UNG CHANGE S</tspan><tspan class="cls-43" x="168.83" y="0">C</tspan><tspan class="cls-26" x="178.97" y="0">ORE</tspan><tspan class="cls-18" x="210.08" y="0">C</tspan><tspan class="cls-39" x="220.62" y="0">ARD</tspan></tspan><tspan class="cls-49"><tspan class="cls-26" x="99.15" y="19.2">B</tspan><tspan class="cls-42" x="109.02" y="19.2">A</tspan><tspan class="cls-44" x="119.77" y="19.2">CK 9</tspan></tspan></text>
  <text class="cls-4" transform="translate(10.46 762.56)"><tspan class="cls-14" x="0" y="0">N</tspan><tspan class="cls-19" x="8.8" y="0">A</tspan><tspan class="cls-33" x="16.99" y="0" xml:space="preserve">ME                                                      </tspan><tspan class="cls-14" x="0" y="14.4">FINISH </tspan><tspan class="cls-47" x="42.06" y="14.4">D</tspan><tspan class="cls-34" x="50.78" y="14.4">A</tspan><tspan class="cls-14" x="58.1" y="14.4" xml:space="preserve">TE                             </tspan></text>
  <text class="cls-5" transform="translate(59.41 109.13)"><tspan class="cls-13"><tspan x="0" y="0">SPENDING</tspan></tspan><tspan class="cls-29"><tspan x="31.27" y="19.2">💳</tspan></tspan></text>
  <text class="cls-5" transform="translate(70.95 255.96)"><tspan class="cls-13"><tspan x="0" y="0">TIMING</tspan></tspan><tspan class="cls-20"><tspan x="19.66" y="20"></tspan></tspan></text>
  <text class="cls-5" transform="translate(65.44 330.06)"><tspan class="cls-13"><tspan x="0" y="0">CHOICES</tspan></tspan><tspan class="cls-28"><tspan x="25.4" y="21"></tspan></tspan></text>
  <text class="cls-1" transform="translate(60.17 402.75)"><tspan class="cls-13"><tspan class="cls-26" x="0" y="0">LIFES</tspan><tspan class="cls-38" x="40.93" y="0">T</tspan><tspan class="cls-40" x="50.53" y="0">Y</tspan><tspan class="cls-26" x="60.27" y="0">LE</tspan></tspan><tspan class="cls-27"><tspan x="30.45" y="19">⛱</tspan></tspan></text>
  <text class="cls-1" transform="translate(53.48 475.92)"><tspan class="cls-13"><tspan class="cls-26" x="0" y="0">PU</tspan><tspan class="cls-41" x="21.26" y="0">R</tspan><tspan class="cls-39" x="31.12" y="0">CHASES</tspan></tspan><tspan class="cls-21"><tspan x="37.14" y="20"></tspan></tspan></text>
  <text class="cls-1" transform="translate(71.47 549.7)"><tspan class="cls-13"><tspan class="cls-17" x="0" y="0">F</tspan><tspan class="cls-51" x="7.74" y="0">A</tspan><tspan class="cls-44" x="18.67" y="0">MI</tspan><tspan class="cls-36" x="37.76" y="0">L</tspan><tspan class="cls-26" x="45.17" y="0">Y</tspan></tspan><tspan class="cls-21"><tspan x="18.91" y="19.2"></tspan></tspan></text>
  <text class="cls-1" transform="translate(55.08 624.21)"><tspan class="cls-13"><tspan class="cls-26" x="0" y="0">VOL</tspan><tspan class="cls-50" x="31.1" y="0">A</tspan><tspan class="cls-26" x="40.86" y="0">TILI</tspan><tspan class="cls-15" x="68.82" y="0">T</tspan><tspan class="cls-44" x="78.42" y="0">Y</tspan></tspan><tspan class="cls-25"><tspan x="35.54" y="20"></tspan></tspan></text>
  <text class="cls-1" transform="translate(66.96 697.95)"><tspan class="cls-13"><tspan class="cls-26" x="0" y="0">CLARI</tspan><tspan class="cls-38" x="45.06" y="0">T</tspan><tspan class="cls-37" x="54.66" y="0">Y</tspan></tspan><tspan class="cls-21"><tspan x="23.66" y="21"></tspan></tspan></text>
  <line class="cls-10" x1=".46" y1="75.11" x2="306.46" y2="75.11"/>
  <line class="cls-10" x1=".46" y1="148.77" x2="306.46" y2="148.77"/>
  <line class="cls-10" x1=".46" y1="222.43" x2="306.46" y2="222.43"/>
  <line class="cls-10" x1=".46" y1="296.08" x2="306.46" y2="296.08"/>
  <line class="cls-10" x1=".46" y1="369.74" x2="306.46" y2="369.74"/>
  <line class="cls-8" x1=".46" y1="443.39" x2="306.46" y2="443.39"/>
  <line class="cls-10" x1=".46" y1="517.05" x2="306.46" y2="517.05"/>
  <line class="cls-10" x1=".46" y1="590.71" x2="306.46" y2="590.71"/>
  <line class="cls-10" x1=".46" y1="664.36" x2="306.46" y2="664.36"/>
  <line class="cls-10" x1="43.77" y1="54" x2="43.77" y2="738"/>
  <text class="cls-2" transform="translate(6.93 68.42)"><tspan x="0" y="0">HOLE</tspan></text>
  <text class="cls-2" transform="translate(159.31 68.42)"><tspan x="0" y="0">BEGUN</tspan></text>
  <text class="cls-2" transform="translate(219.28 68.42)"><tspan x="0" y="0">WIP</tspan></text>
  <text class="cls-2" transform="translate(264.5 68.42)"><tspan x="0" y="0">DONE</tspan></text>
  <text class="cls-11" transform="translate(11.04 119.33)"><tspan x="0" y="0">❿</tspan></text>
  <text class="cls-11" transform="translate(10.58 193.09)"><tspan x="0" y="0">⓫</tspan></text>
  <text class="cls-11" transform="translate(10.58 413.95)"><tspan x="0" y="0">⓮</tspan></text>
  <text class="cls-11" transform="translate(10.58 340.35)"><tspan x="0" y="0">⓭</tspan></text>
  <text class="cls-11" transform="translate(10.58 266.58)"><tspan x="0" y="0">⓬</tspan></text>
  <text class="cls-11" transform="translate(11.04 708.57)"><tspan x="0" y="0">⓲</tspan></text>
  <text class="cls-11" transform="translate(11.04 634.92)"><tspan x="0" y="0">⓱</tspan></text>
  <text class="cls-11" transform="translate(11.04 560.75)"><tspan x="0" y="0">⓰</tspan></text>
  <text class="cls-11" transform="translate(10.58 487.63)"><tspan x="0" y="0">⓯</tspan></text>
  <text class="cls-5" transform="translate(57.97 181.86)"><tspan class="cls-13"><tspan x="0" y="0">INVESTING</tspan></tspan><tspan class="cls-29"><tspan x="32.64" y="19">📈</tspan></tspan></text>
  <g>
    <path class="cls-22" d="M270.57,777.32l17.16-7.44v-.02s-3.75-8.58-3.75-8.58l-17.16,7.44.02.04-3.75-8.58,17.16-7.44-4.86-11.14c.19,0,.39,0,.58,0,12.92.35,23.14,11.1,22.82,24-.31,12.68-10.68,22.72-23.29,22.75h-.11s-.19-.44-.19-.44l-4.61-10.56"/>
    <path class="cls-16" d="M280.23,752.68l-17.16,7.44v.02s3.75,8.58,3.75,8.58l17.16-7.44-.02-.04,3.75,8.58-17.16,7.44,4.86,11.14c-.19,0-.39,0-.58,0-12.92-.35-23.14-11.1-22.82-24,.31-12.68,10.68-22.72,23.29-22.75h.11s.19.44.19.44l4.61,10.56"/>
    <g>
      <g>
        <path class="cls-45" d="M288.33,772.58c-2.03-.02-3.93-.82-5.36-2.27-1.42-1.44-2.2-3.36-2.18-5.38.04-4.14,3.45-7.51,7.6-7.51,2.1.02,4,.82,5.43,2.27,1.42,1.44,2.2,3.36,2.18,5.38-.04,4.14-3.45,7.51-7.6,7.51h-.07Z"/>
        <path class="cls-22" d="M288.39,757.94s.04,0,.06,0c3.91.03,7.06,3.22,7.02,7.12-.03,3.88-3.2,7-7.09,7-.02,0-.04,0-.06,0-3.91-.03-7.06-3.22-7.03-7.12.03-3.88,3.2-7,7.09-7M288.39,756.9h0c-4.44,0-8.08,3.6-8.12,8.03-.02,2.16.81,4.21,2.33,5.75,1.52,1.54,3.55,2.4,5.72,2.42h.07c4.44,0,8.08-3.6,8.12-8.03.02-2.16-.81-4.21-2.33-5.75-1.52-1.54-3.55-2.4-5.72-2.42h-.07Z"/>
      </g>
      <g>
        <path class="cls-22" d="M288.35,770.32c-1.43-.01-2.76-.58-3.76-1.59-1-1.01-1.54-2.36-1.53-3.78.03-2.91,2.42-5.28,5.34-5.28,1.47.01,2.81.58,3.81,1.59,1,1.01,1.54,2.36,1.53,3.78-.03,2.91-2.42,5.27-5.34,5.27h-.05Z"/>
        <path class="cls-24" d="M288.39,760.29s.03,0,.04,0c2.61.02,4.71,2.15,4.68,4.75-.02,2.59-2.13,4.67-4.72,4.67-.01,0-.03,0-.04,0-2.61-.02-4.71-2.15-4.68-4.75.02-2.59,2.13-4.67,4.72-4.67M288.39,759.07h0c-3.25,0-5.92,2.64-5.95,5.88-.01,1.59.59,3.08,1.71,4.21,1.11,1.13,2.6,1.76,4.19,1.77h0s.05,0,.05,0c3.25,0,5.92-2.64,5.95-5.88.01-1.59-.59-3.08-1.71-4.21-1.11-1.13-2.6-1.76-4.19-1.77h0s-.05,0-.05,0h0Z"/>
      </g>
      <g>
        <path class="cls-45" d="M288.37,767.83c-.76,0-1.47-.31-2-.84-.53-.54-.82-1.25-.81-2.01.01-1.54,1.29-2.8,2.83-2.8.78,0,1.49.31,2.02.84.53.54.82,1.25.81,2.01-.01,1.54-1.28,2.8-2.83,2.8h-.03Z"/>
        <path class="cls-24" d="M288.39,762.65s.01,0,.02,0c1.3.01,2.35,1.07,2.34,2.37-.01,1.29-1.07,2.33-2.36,2.33,0,0-.01,0-.02,0-1.3-.01-2.35-1.07-2.34-2.37.01-1.29,1.07-2.33,2.36-2.33M288.39,761.7c-1.81,0-3.29,1.47-3.31,3.27,0,.88.33,1.71.95,2.34.62.63,1.45.98,2.33.98,1.84,0,3.32-1.47,3.33-3.27,0-.88-.33-1.71-.95-2.34-.62-.63-1.45-.98-2.33-.98h-.03Z"/>
      </g>
    </g>
    <g>
      <g>
        <path class="cls-22" d="M262.34,772.58c-2.03-.02-3.93-.82-5.36-2.27-1.42-1.44-2.2-3.36-2.18-5.38.04-4.14,3.45-7.51,7.6-7.51,2.1.02,4,.82,5.43,2.27,1.42,1.44,2.2,3.36,2.18,5.38-.04,4.14-3.45,7.51-7.6,7.51h-.07Z"/>
        <path class="cls-45" d="M262.41,757.94s.04,0,.06,0c3.91.03,7.06,3.22,7.03,7.12-.03,3.88-3.2,7-7.09,7-.02,0-.04,0-.06,0-3.91-.03-7.06-3.22-7.02-7.12.03-3.88,3.2-7,7.09-7M262.41,756.9h0c-4.44,0-8.08,3.6-8.12,8.03-.02,2.16.81,4.21,2.33,5.75,1.52,1.54,3.55,2.4,5.72,2.42h.07c4.44,0,8.08-3.6,8.12-8.03.02-2.16-.81-4.21-2.33-5.75-1.52-1.54-3.55-2.4-5.72-2.42h-.07Z"/>
      </g>
      <g>
        <path class="cls-24" d="M262.36,770.32c-1.43-.01-2.76-.58-3.76-1.59-1-1.01-1.54-2.36-1.53-3.78.03-2.91,2.42-5.28,5.34-5.28,1.47.01,2.81.58,3.81,1.59,1,1.01,1.54,2.36,1.53,3.78-.03,2.91-2.42,5.28-5.34,5.28h-.05Z"/>
        <path class="cls-45" d="M262.41,760.29s.03,0,.04,0c2.61.02,4.71,2.15,4.68,4.75-.02,2.59-2.13,4.67-4.72,4.67-.01,0-.03,0-.04,0-2.61-.02-4.71-2.15-4.68-4.75.02-2.59,2.13-4.67,4.72-4.67M262.41,759.07h0c-3.25,0-5.92,2.64-5.95,5.88-.01,1.59.59,3.08,1.71,4.21,1.11,1.13,2.6,1.76,4.19,1.77h0s.05,0,.05,0c3.25,0,5.92-2.64,5.95-5.88.01-1.59-.59-3.08-1.71-4.21-1.11-1.13-2.6-1.76-4.19-1.77h0s-.05,0-.05,0h0Z"/>
      </g>
      <g>
        <path class="cls-22" d="M262.38,767.83c-.76,0-1.47-.31-2-.84-.53-.54-.82-1.25-.81-2.01.01-1.54,1.28-2.8,2.83-2.8.78,0,1.49.31,2.02.84.53.54.82,1.25.81,2.01-.01,1.54-1.29,2.8-2.83,2.8h-.03Z"/>
        <path class="cls-45" d="M262.41,762.65s.01,0,.02,0c1.3.01,2.35,1.07,2.34,2.37-.01,1.29-1.07,2.33-2.36,2.33,0,0-.01,0-.02,0-1.3-.01-2.35-1.07-2.34-2.37.01-1.29,1.07-2.33,2.36-2.33M262.41,761.7c-1.81,0-3.29,1.47-3.3,3.27,0,.88.33,1.71.95,2.34.62.63,1.45.98,2.33.98,1.84,0,3.32-1.47,3.33-3.27,0-.88-.33-1.71-.95-2.34-.62-.63-1.45-.98-2.33-.98h0s-.03,0-.03,0h0Z"/>
      </g>
    </g>
    <g>
      <path class="cls-16" d="M275.41,742.71h0,.2c5.98.05,11.59,2.42,15.78,6.67,4.19,4.25,6.47,9.88,6.42,15.84-.11,12.2-10.15,22.12-22.39,22.12h-.2c-5.98-.05-11.59-2.42-15.78-6.67-4.19-4.25-6.47-9.88-6.42-15.84.11-12.2,10.15-22.12,22.39-22.12M275.41,742.43c-12.43,0-22.57,9.99-22.67,22.4-.11,12.48,9.96,22.69,22.48,22.79.07,0,.13,0,.2,0,12.43,0,22.57-9.99,22.67-22.4.11-12.48-9.96-22.69-22.48-22.79-.07,0-.13,0-.2,0h0Z"/>
      <path class="cls-16" d="M275.41,742.43c.07,0,.13,0,.2,0,12.52.11,22.59,10.31,22.48,22.79-.11,12.41-10.24,22.4-22.67,22.4-.07,0-.13,0-.2,0-12.52-.11-22.59-10.31-22.48-22.79.11-12.41,10.24-22.4,22.67-22.4M275.41,741.58h0c-12.86,0-23.41,10.43-23.52,23.24-.05,6.26,2.34,12.17,6.75,16.64,4.4,4.47,10.29,6.96,16.57,7.01h.21c12.86,0,23.41-10.43,23.52-23.24.05-6.26-2.34-12.17-6.75-16.64-4.4-4.47-10.29-6.96-16.57-7.01h-.21Z"/>
      <path class="cls-35" d="M275.41,742.43c.07,0,.13,0,.2,0,12.52.11,22.59,10.31,22.48,22.79-.11,12.41-10.24,22.4-22.67,22.4-.07,0-.13,0-.2,0-12.52-.11-22.59-10.31-22.48-22.79.11-12.41,10.24-22.4,22.67-22.4M275.41,741.87h0c-12.7,0-23.13,10.3-23.24,22.96-.05,6.19,2.31,12.03,6.67,16.44,4.35,4.41,10.17,6.87,16.38,6.93h.21c12.7,0,23.13-10.3,23.24-22.96.05-6.19-2.31-12.03-6.67-16.44-4.35-4.41-10.17-6.87-16.38-6.93h-.21Z"/>
    </g>
  </g>
</svg>